<?xml version="1.0" encoding="utf-8"?>
<!-- Generator: Adobe Illustrator 18.1.1, SVG Export Plug-In . SVG Version: 6.00 Build 0)  -->
<svg version="1.1" id="Layer_1" xmlns="http://www.w3.org/2000/svg" xmlns:xlink="http://www.w3.org/1999/xlink" x="0px" y="0px"
	 viewBox="0 0 458 74.644" enable-background="new 0 0 458 74.644" xml:space="preserve">
<g>
	<rect x="301" y="43.831" fill="#50B748" width="11" height="5"/>
	<polygon fill="#50B748" points="213,57.831 229,57.831 229,51.831 219,51.831 219,45.831 229,45.831 229,39.831 219,39.831
		219,34.831 229,34.831 229,28.831 213,28.831 	"/>
	<polygon fill="#50B748" points="250,39.831 239,39.831 239,28.831 233,28.831 233,57.831 239,57.831 239,44.831 250,44.831
		250,57.831 256,57.831 256,28.831 250,28.831 	"/>
	<polygon fill="#50B748" points="207,28.831 201,28.831 201,51.831 190,51.831 190,28.831 184,28.831 184,57.831 205,57.831
		205,63.831 210,63.831 210,51.831 207,51.831 	"/>
	<polygon fill="#50B748" points="397,57.831 413,57.831 413,51.831 403,51.831 403,45.831 413,45.831 413,39.831 403,39.831
		403,34.831 413,34.831 413,28.831 397,28.831 	"/>
	<polygon fill="#50B748" points="322,47.087 322,28.831 315,28.831 315,57.831 320.175,57.831 335,39.597 335,57.831 341,57.831
		341,28.831 335.931,28.831 	"/>
	<polygon fill="#50B748" points="440,28.831 440,34.831 446,34.831 446,57.831 452,57.831 452,34.831 458,34.831 458,28.831 	"/>
	<path fill="#50B748" d="M430.511,28.447c-4.037,0-7.617,1.07-10.492,3.784c-2.449,2.271-4.591,6.016-4.591,11.177
		c-0.007,4.167,1.297,7.771,4.582,10.924c2.383,2.262,5.486,3.999,10.461,3.99c3.069,0,5.48-0.771,7.199-1.669l0.33-0.108v-7.61
		l-0.794,0.787c-1.566,1.839-3.82,2.916-6.292,2.916c-2.254,0-4.561-0.807-6.261-2.344c-1.693-1.546-2.859-3.812-2.859-6.807
		c0-2.481,0.871-4.827,2.413-6.537c1.541-1.719,3.732-2.817,6.429-2.817c0.961,0,4.128,0.199,6.572,3.004L438,37.898v-7.59
		l-0.326-0.103C435.059,28.792,432.513,28.447,430.511,28.447z"/>
	<polygon fill="#50B748" points="363,39.831 352,39.831 352,28.831 346,28.831 346,57.831 352,57.831 352,44.831 363,44.831
		363,57.831 369,57.831 369,28.831 363,28.831 	"/>
	<path fill="#50B748" d="M388.371,42.274c0.368-0.283,0.787-0.639,1.185-1.145c0.732-0.919,1.367-2.278,1.367-4.155
		c-0.004-2.444-0.999-4.841-2.739-6.188c-2.391-1.848-5.493-1.955-7.038-1.955H374v29h9.606c2.465,0,5.126-0.489,7.313-2.412
		c2.026-1.814,2.506-4.265,2.506-5.961c0-1.516-0.339-3.821-2.12-5.511C390.686,43.36,389.764,42.657,388.371,42.274z M380,33.831
		h1.267c1.051,0,2.024,0.446,2.701,0.94c0.675,0.501,1.095,1.336,1.102,2.511c0,0.828-0.196,1.466-0.48,1.918
		c-0.427,0.654-1.095,1.127-1.762,1.314c-0.663,0.187-1.3,0.316-1.602,0.316H380V33.831z M386.755,50.475
		c-0.231,0.519-0.613,1.135-1.21,1.499c-1.093,0.642-2.534,0.858-3.521,0.858H380v-7h1.685c1.173,0,2.493,0,3.558,0h0.013
		c0.794,1,1.235,0.991,1.491,1.51c0.256,0.519,0.326,1.113,0.326,1.512C387.073,49.353,386.992,49.969,386.755,50.475z"/>
	<polygon fill="#50B748" points="259,34.831 265,34.831 265,57.831 271,57.831 271,34.831 278,34.831 278,28.831 259,28.831 	"/>
	<path fill="#50B748" d="M296.127,30.831c-1.056,0-2.184-1.385-3.418-1.708c-1.248-0.32-2.602-0.292-4.185-0.292H280v29h6v-10h3.366
		c3.281,0,5.692-1.176,7.324-2.803c2.25-2.262,2.408-5.718,2.408-6.839c0-2.076-0.606-4.358-2.966-7.358H296.127z M291.387,41.083
		c-1.054,0.796-2.279,0.748-3.323,0.748H286v-7h1.733c1.28,0,2.614-0.07,3.625,0.642c0.709,0.532,1.384,1.343,1.392,2.764
		C292.75,39.346,292.282,40.379,291.387,41.083z"/>
	<path fill="#50B748" d="M195.377,22.612c1.196-0.386,2.552-0.982,3.452-2.258l0.171,0.12v0.004c0-1.148,1.121-2.589,1.121-4.159
		c0-2.188-0.95-3.99-2.292-5.186l-0.045-0.208c-1.836-1.616-4.136-2.093-5.835-2.093H189v-4h9v-4h-14v22h7.987
		C192.969,22.831,194.174,23.001,195.377,22.612z M189,18.857v-5.026h2.094c1.582,0,2.484,0.331,2.982,0.818
		c0.514,0.498,0.675,1.102,0.684,1.726c-0.009,0.569-0.15,1.153-0.647,1.631c-0.497,0.467-1.592,0.854-3.261,0.854L189,18.857z"/>
	<path fill="#50B748" d="M207.49,18.831h8.413l1.957,4h5.459l-9.44-22h-4.139l-9.702,22h5.493L207.49,18.831z M211.773,8.277
		l2.565,6.554h-5.182L211.773,8.277z"/>
	<polygon fill="#50B748" points="239,22.831 244,22.831 244,0.831 239,0.831 239,8.831 230,8.831 230,0.831 225,0.831 225,22.831
		230,22.831 230,13.831 239,13.831 	"/>
	<polygon fill="#50B748" points="252,13.688 252.331,13.356 260.291,22.831 266.986,22.831 256.831,10.999 266.542,0.831
		260.071,0.831 252,9.168 252,0.831 247,0.831 247,22.831 252,22.831 	"/>
	<polygon fill="#50B748" points="138,0.831 138,17.038 151.71,0.831 	"/>
	<path fill="#50B748" d="M161,2.696l-23,28.531v7.106c0-0.194,0.146-0.393,0.187-0.594l0.345-1.258
		c0.554-1.848,1.331-3.439,2.498-5.038l0.802-0.944c0.908-0.921,1.791-1.637,2.93-2.309c0.589-0.309,1.155-0.554,1.769-0.791
		c1.366-0.396,2.54-0.558,3.981-0.517l1.336,0.186c1.114,0.262,2.034,0.601,3.036,1.123c0.555,0.324,1.058,0.659,1.563,1.04
		c1.516,1.276,2.568,2.627,3.488,4.308l0.33,1.136c0.427,1.073,0.736,2.648,0.736,3.703V2.696z"/>
	<path fill="#50B748" d="M149.821,52.638c5.085,0,9.224-5.203,9.224-11.587c0-6.368-4.139-11.575-9.224-11.575
		c-5.07,0-9.209,5.203-9.209,11.575C140.612,47.435,144.751,52.638,149.821,52.638z M149.821,33.221
		c3.062,0,5.565,3.521,5.565,7.837c0,4.313-2.503,7.834-5.565,7.834c-3.053,0-5.542-3.521-5.542-7.834
		C144.279,36.743,146.768,33.221,149.821,33.221z"/>
	<path fill="#50B748" d="M138.187,44.37C138.15,44.175,138,43.972,138,43.785v14.046h23V43.855c0,1.47-0.552,3.289-1.258,4.727
		l-0.529,1.077c-0.941,1.417-1.903,2.536-3.308,3.592l-1.046,0.676c-1.002,0.52-1.909,0.86-3.023,1.123
		c-0.693,0.119-1.311,0.181-2.021,0.202c-0.931-0.032-1.744-0.133-2.652-0.352c-0.637-0.19-1.22-0.41-1.83-0.675
		c-1.379-0.722-2.429-1.525-3.482-2.607l-0.8-0.953c-1.167-1.59-1.963-3.181-2.518-5.029L138.187,44.37z"/>
	<path fill="#50B748" d="M130,19.764c0,0.199,0.019,0.393-0.009,0.592l-0.265,1.255c-0.551,1.852-1.289,3.435-2.453,5.046
		l-0.79,0.94c-0.899,0.925-1.776,1.637-2.915,2.304c-0.585,0.314-1.15,0.558-1.767,0.794c-1.367,0.402-2.533,0.555-3.975,0.514
		l-1.333-0.178c-1.12-0.261-2.03-0.609-3.036-1.13c-0.56-0.32-1.056-0.659-1.571-1.04c-1.509-1.273-2.556-2.623-3.476-4.304
		l-0.508-1.136C107.483,22.354,107,20.779,107,19.72v35.682l23-28.533V19.764z"/>
	<path fill="#50B748" d="M118.514,5.46c-5.076,0-9.213,5.2-9.213,11.58c-0.004,6.38,4.137,11.578,9.213,11.578
		c5.079,0,9.218-5.194,9.218-11.578C127.732,10.659,123.593,5.46,118.514,5.46z M118.51,24.873c-3.057,0-5.552-3.514-5.552-7.834
		c0-4.322,2.495-7.843,5.552-7.843c3.062,0,5.552,3.521,5.552,7.843C124.062,21.359,121.571,24.873,118.51,24.873z"/>
	<path fill="#50B748" d="M109.031,8.438c0.944-1.417,1.955-2.536,3.356-3.595l1.068-0.676c1.008-0.517,1.918-0.857,3.037-1.118
		c0.688-0.116,1.322-0.183,2.022-0.203c0.937,0.029,1.745,0.133,2.664,0.352c0.634,0.195,1.219,0.41,1.827,0.672
		c1.379,0.725,2.433,1.523,3.489,2.609l0.8,0.944c1.163,1.6,1.91,3.194,2.472,5.042l0.225,1.264
		c0.029,0.199,0.009,0.393,0.009,0.579V0.831h-23v13.415c0-1.475,0.729-3.302,1.433-4.727L109.031,8.438z"/>
	<polygon fill="#50B748" points="116.624,57.831 129.84,57.831 130.164,57.831 136,57.831 136,53.831 130,53.831 130,41.063 	"/>
	<polygon fill="#50B748" points="113.435,57.831 160.067,0.831 154.829,0.831 108.297,57.831 	"/>
	<path fill="#50B748" d="M164,53.748v3.94c2,0,4.475,2.574,4.475,5.266c0,2.689-2.288,5.254-5.007,5.254
		c-2.005,0-3.878-0.445-7.674-1.381c-7.377-1.805-16.46-4.079-23.731-5.856c-13.057-3.211-25.053,0.86-25.103,8.86h3.977
		c0-3,6.11-5.197,19.196-1.996c11.317,2.779,15.572,3.845,24.093,5.935c5.625,1.381,10.237,1.061,13.555-0.521l0.009,0.018
		c3.318-1.606,5.744-5.49,5.744-9.384C173.533,58.427,169,53.748,164,53.748z"/>
	<path fill="#50B748" d="M24.552,39.548c8.595-5.221,17.032-9.603,17.032-21.893C41.584,5.523,32.521,0,21.035,0
		C18.22,0,0,0.18,0,18.899v1.932h10V18.98c0-2.972,0.647-10.526,10.852-10.526c9.398,0,10.204,6.67,10.204,9.08
		c0,7.31-5.822,10.988-11.77,14.603C10.209,37.682,0.287,42.831,0.447,57.831H41v-8H12.178
		C13.463,46.831,15.552,45.01,24.552,39.548z"/>
	<path fill="#50B748" d="M70.424,18.98c-7.872,0-11.41,3.058-12.373,4.022l1.847-13.171H85v-8H52.347l-3.856,30h9.719
		c2.253-4,6.67-4.498,9.482-4.498c2.651,0,10.522,0.447,10.522,11.535c0,0.702-0.028,1.963-0.084,1.963h10.46
		c0.045,0,0.07-1.247,0.07-1.963C88.661,25.772,81.191,18.98,70.424,18.98z"/>
	<path fill="#50B748" d="M50.649,51.525c-0.022,1.34-0.114,2.736-0.741,3.342C49.389,55.386,49,55.312,48,55.247v2.638
		c1,0.108,1.303,0.173,1.995,0.173c0.865,0,1.905-0.086,2.792-0.886C54.04,56.025,54,54.036,54,51.723v-1.892h3v8h4v-11H50.692
		L50.649,51.525z"/>
	<path fill="#50B748" d="M69.459,46.469c-1.405,0-3.221,0.26-4.605,1.622c-0.93,0.908-1.708,2.421-1.708,4.41
		c0,1.859,0.649,3.265,1.535,4.173c1.47,1.492,3.394,1.6,4.691,1.6c1.232,0,2.703-0.035,3.956-0.878
		c0.692-0.454,1.513-1.564,1.903-2.564H71.34c-0.086,0-0.281,0.532-0.627,0.748c-0.411,0.259-0.822,0.266-1.211,0.266
		c-0.411,0-1.059-0.275-1.557-0.707c-0.541-0.476-0.778-1.307-0.757-2.307H75v0.146c0-1.578,0.062-3.524-1.322-4.951
		C72.273,46.577,70.453,46.469,69.459,46.469z M67.189,50.831c0.022,0,0.303-1.208,0.713-1.597c0.476-0.454,1.059-0.42,1.448-0.42
		c0.411,0,1.038-0.083,1.492,0.457c0.324,0.389,0.541,1.56,0.541,1.56H67.189z"/>
	<polygon fill="#50B748" points="76,49.831 80,49.831 80,57.831 84,57.831 84,49.831 87,49.831 87,46.831 76,46.831 	"/>
</g>
</svg>
