<?xml version="1.0" encoding="UTF-8"?>
<!-- Generator: Adobe Illustrator 18.1.1, SVG Export Plug-In . SVG Version: 6.00 Build 0)  -->
<svg version="1.1" id="Слой_1" xmlns="http://www.w3.org/2000/svg" xmlns:xlink="http://www.w3.org/1999/xlink" x="0px" y="0px" viewBox="0 0 83.539 50" enable-background="new 0 0 83.539 50" xml:space="preserve">
<g>
	<polygon fill="#DE282F" points="25.046,50 26.328,49.966 27.602,49.874 28.85,49.714 30.081,49.494 31.287,49.216 32.476,48.879    33.631,48.482 34.77,48.035 35.875,47.529 36.946,46.981 37.991,46.374 39.003,45.725 39.982,45.025 40.926,44.283 41.828,43.498    42.697,42.663 43.523,41.795 44.308,40.884 45.05,39.939 45.741,38.961 46.391,37.941 46.989,36.895 47.546,35.816 48.044,34.702    48.491,33.564 48.879,32.4 49.216,31.211 49.494,30.005 49.713,28.766 49.874,27.517 49.966,26.244 50,24.954 49.966,23.672    49.874,22.407 49.713,21.159 49.494,19.936 49.216,18.73 48.879,17.549 48.491,16.386 48.044,15.256 47.546,14.151 46.989,13.071    46.391,12.034 45.741,11.014 45.05,10.035 44.308,9.099 43.523,8.189 42.697,7.32 41.828,6.494 40.926,5.709 39.982,4.967    39.003,4.267 37.991,3.618 36.946,3.019 35.875,2.471 34.77,1.965 33.631,1.518 32.476,1.122 31.287,0.784 30.081,0.506    28.85,0.287 27.602,0.126 26.328,0.034 25.046,0 23.756,0.034 22.483,0.126 21.235,0.287 19.995,0.506 18.789,0.784 17.6,1.122    16.436,1.518 15.298,1.965 14.184,2.471 13.105,3.019 12.059,3.618 11.039,4.267 10.061,4.967 9.116,5.709 8.205,6.494 7.337,7.32    6.502,8.189 5.718,9.099 4.975,10.035 4.276,11.014 3.626,12.034 3.019,13.071 2.471,14.151 1.965,15.256 1.518,16.386    1.122,17.549 0.784,18.73 0.506,19.936 0.287,21.159 0.126,22.407 0.034,23.672 0,24.954 0.034,26.244 0.126,27.517 0.287,28.766    0.506,30.005 0.784,31.211 1.122,32.4 1.518,33.564 1.965,34.702 2.471,35.816 3.019,36.895 3.626,37.941 4.276,38.961    4.975,39.939 5.718,40.884 6.502,41.795 7.337,42.663 8.205,43.498 9.116,44.283 10.061,45.025 11.039,45.725 12.059,46.374    13.105,46.981 14.184,47.529 15.298,48.035 16.436,48.482 17.6,48.879 18.789,49.216 19.995,49.494 21.235,49.714 22.483,49.874    23.756,49.966  "/>
	<g>
		<polygon fill="#F5A62D" points="83.505,23.672 83.412,22.407 83.252,21.159 83.033,19.936 82.755,18.73 82.417,17.549     82.021,16.386 81.574,15.256 81.068,14.151 80.52,13.071 79.913,12.034 79.263,11.014 78.563,10.035 77.821,9.099 77.037,8.189     76.202,7.32 75.333,6.494 74.423,5.709 73.478,4.967 72.5,4.267 71.479,3.618 70.434,3.019 69.354,2.471 68.241,1.965     67.103,1.518 65.939,1.122 64.75,0.784 63.544,0.506 62.304,0.287 61.056,0.126 59.783,0.034 58.492,0 57.21,0.034 55.937,0.126     54.689,0.287 53.458,0.506 52.252,0.784 51.063,1.122 49.907,1.518 48.769,1.965 47.664,2.471 46.593,3.019 45.547,3.618     44.535,4.267 43.557,4.967 42.613,5.709 41.769,6.442 41.828,6.494 42.697,7.32 43.523,8.189 43.56,8.231 39.99,8.231     38.843,9.589 44.695,9.589 45.05,10.035 45.741,11.014 45.892,11.25 37.654,11.25 36.853,12.608 46.722,12.608 46.989,13.071     47.546,14.151 47.595,14.26 35.959,14.26 35.369,15.618 48.187,15.618 48.491,16.386 48.789,17.28 34.77,17.28 34.348,18.637     49.189,18.637 49.216,18.73 49.494,19.936 49.558,20.29 34.011,20.29 33.749,21.648 49.776,21.648 49.874,22.407 49.966,23.672     50,24.954 49.977,25.839 45.758,25.839 45.505,27.205 49.896,27.205 49.874,27.517 49.713,28.766 49.697,28.858 45.202,28.858     44.949,30.216 49.445,30.216 49.216,31.211 49.029,31.869 34.517,31.869 34.939,33.227 48.603,33.227 48.491,33.564     48.044,34.702 47.961,34.888 35.579,34.888 36.212,36.246 47.324,36.246 46.989,36.895 46.415,37.899 37.148,37.899 38,39.256     45.533,39.256 45.05,39.939 44.308,40.884 44.286,40.909 39.273,40.909 40.462,42.275 43.066,42.275 42.697,42.663 41.828,43.498     41.769,43.55 42.613,44.283 43.557,45.025 44.535,45.725 45.547,46.374 46.593,46.981 47.664,47.529 48.769,48.035 49.907,48.482     51.063,48.878 52.252,49.216 53.458,49.494 54.689,49.714 55.937,49.874 57.21,49.966 58.492,50 59.783,49.966 61.056,49.874     62.304,49.714 63.544,49.494 64.75,49.216 65.939,48.878 67.103,48.482 68.241,48.035 69.354,47.529 70.434,46.981 71.479,46.374     72.5,45.725 73.478,45.025 74.423,44.283 75.333,43.498 76.202,42.663 77.037,41.795 77.821,40.884 78.563,39.939 79.263,38.961     79.913,37.941 80.52,36.895 81.068,35.816 81.574,34.702 82.021,33.564 82.417,32.4 82.755,31.211 83.033,30.005 83.252,28.766     83.412,27.517 83.505,26.244 83.539,24.954   "/>
		<polygon fill="#F5A62D" points="35.107,25.839 33.286,25.839 33.37,27.205 35.107,27.205   "/>
	</g>
	<g>
		<path fill="#FFFFFF" d="M81.046,29.803l-0.034-0.051l-0.042-0.051l-0.059-0.034l-0.067-0.025l-0.093-0.017l-0.101-0.008h-0.464    v0.506v0.514h0.211v-0.422h0.211l0.253,0.422h0.169l-0.253-0.422h0.059l0.059-0.017l0.051-0.017l0.042-0.034l0.017-0.025    l0.017-0.017l0.025-0.051l0.017-0.059l0.008-0.076l-0.008-0.059L81.046,29.803z M80.902,29.98l-0.017,0.042l-0.017,0.025    l-0.034,0.025l-0.042,0.017l-0.051,0.017l-0.059,0.008l-0.034,0.008l-0.042,0.008h-0.211v-0.008v-0.329h0.253H80.7h0.042    l0.042,0.008l0.042,0.008l0.025,0.017l0.025,0.017l0.017,0.034l0.008,0.042V29.98z"/>
		<path fill="#FFFFFF" d="M81.788,30.123l-0.017-0.194l-0.067-0.228l-0.118-0.202l-0.143-0.177l-0.177-0.143l-0.202-0.101    l-0.219-0.067l-0.236-0.025l-0.236,0.025l-0.219,0.067l-0.202,0.101l-0.177,0.143l-0.143,0.177l-0.118,0.202l-0.067,0.228    l-0.017,0.194l-0.008,0.051l0.025,0.245l0.067,0.228l0.118,0.202l0.143,0.169l0.177,0.143l0.202,0.11l0.219,0.067l0.236,0.025    l0.236-0.025l0.219-0.067l0.202-0.11l0.177-0.143l0.143-0.169l0.118-0.202l0.067-0.228l0.025-0.245L81.788,30.123z M81.526,30.376    l-0.051,0.186l-0.084,0.16l-0.11,0.143l-0.135,0.118l-0.16,0.093l-0.186,0.059l-0.194,0.017l-0.194-0.017l-0.185-0.059    l-0.16-0.093l-0.135-0.118l-0.11-0.143l-0.084-0.16l-0.051-0.186l-0.017-0.202v-0.051l0.017-0.152l0.051-0.186l0.084-0.169    l0.11-0.143l0.135-0.118l0.16-0.084l0.185-0.059l0.194-0.017l0.194,0.017l0.186,0.059l0.16,0.084l0.135,0.118l0.11,0.143    l0.084,0.169l0.051,0.186l0.008,0.152l0.008,0.051L81.526,30.376z"/>
	</g>
	<g>
		<polygon fill="#FFFFFF" points="29.887,24.195 29.769,24.186 29.651,24.169 29.541,24.153 29.432,24.136 29.33,24.119     29.221,24.102 29.111,24.085 28.993,24.068 28.875,24.051 28.74,24.043 28.588,24.035 28.428,24.026 28.251,24.026 28.057,24.035     27.838,24.051 27.593,24.068 27.425,24.094 27.264,24.119 27.121,24.169 26.994,24.22 26.876,24.279 26.767,24.347 26.682,24.431     26.607,24.507 26.556,24.6 26.514,24.692 26.497,24.793 26.497,24.895 26.522,25.004 26.556,25.114 26.623,25.224 26.708,25.333     26.876,25.493 27.079,25.62 27.315,25.73 27.568,25.822 27.838,25.907 28.116,25.999 28.394,26.101 28.664,26.21 28.917,26.354     29.153,26.531 29.364,26.742 29.541,27.003 29.676,27.323 29.761,27.703 29.794,28.158 29.761,28.69 29.702,29.086 29.6,29.432     29.465,29.752 29.297,30.03 29.103,30.275 28.883,30.486 28.647,30.671 28.386,30.832 28.116,30.958 27.838,31.068 27.551,31.152     27.256,31.219 26.969,31.27 26.691,31.295 26.413,31.312 26.151,31.321 25.789,31.321 25.451,31.312 25.156,31.312 24.878,31.304     24.625,31.295 24.397,31.279 24.195,31.262 24.001,31.236 23.824,31.219 23.663,31.186 23.503,31.161 23.36,31.118 23.216,31.085     23.081,31.034 22.947,30.983 22.803,30.933 23.183,29.069 23.259,29.086 23.351,29.111 23.469,29.145 23.613,29.179     23.765,29.212 23.933,29.246 24.119,29.288 24.321,29.322 24.532,29.356 24.751,29.39 24.979,29.415 25.215,29.44 25.46,29.449     25.704,29.457 25.949,29.457 26.193,29.449 26.438,29.398 26.632,29.331 26.784,29.238 26.902,29.12 26.986,29.002 27.053,28.867     27.096,28.732 27.129,28.605 27.146,28.361 27.07,28.15 26.927,27.981 26.716,27.838 26.463,27.711 26.168,27.585 25.839,27.467     25.51,27.332 25.173,27.18 24.852,27.003 24.557,26.784 24.287,26.522 24.077,26.202 23.925,25.822 23.849,25.367 23.857,24.827     23.899,24.498 23.959,24.186 24.043,23.9 24.144,23.63 24.279,23.377 24.431,23.157 24.608,22.947 24.819,22.761 25.063,22.601     25.333,22.466 25.637,22.339 25.974,22.247 26.354,22.171 26.767,22.112 27.222,22.078 27.72,22.07 28.032,22.07 28.318,22.078     28.58,22.086 28.816,22.095 29.027,22.112 29.221,22.129 29.389,22.145 29.541,22.162 29.685,22.179 29.803,22.205 29.912,22.221     30.014,22.238 30.098,22.255 30.174,22.264 30.25,22.28 30.317,22.289   "/>
		<polygon fill="#FFFFFF" points="31.886,20.206 34.222,20.206 33.876,22.247 35.284,22.247 34.981,24.153 33.496,24.11     32.687,28.816 32.678,28.985 32.721,29.128 32.805,29.238 32.915,29.331 33.066,29.39 33.235,29.44 33.421,29.474 33.623,29.491     33.808,29.482 33.977,29.465 34.129,29.44 34.264,29.406 34.373,29.373 34.449,29.347 34.5,29.331 34.517,29.322 34.222,30.891     34.163,30.933 34.104,30.967 34.045,31 33.986,31.034 33.927,31.059 33.859,31.085 33.783,31.11 33.707,31.135 33.623,31.161     33.539,31.177 33.437,31.194 33.336,31.211 33.227,31.228 33.1,31.245 32.965,31.262 32.822,31.279 32.181,31.279 31.844,31.253     31.548,31.219 31.279,31.169 31.051,31.11 30.857,31.034 30.697,30.95 30.553,30.849 30.444,30.739 30.359,30.621 30.3,30.477     30.258,30.334 30.233,30.174 30.224,29.997 30.224,29.811 30.25,29.617 30.275,29.406   "/>
		<polygon fill="#FFFFFF" points="37.148,27.332 37.123,27.475 37.114,27.627 37.131,27.787 37.165,27.948 37.224,28.108     37.291,28.26 37.384,28.42 37.485,28.563 37.603,28.706 37.73,28.833 37.865,28.959 38.017,29.061 38.168,29.153 38.337,29.229     38.506,29.288 38.674,29.322 38.894,29.356 39.104,29.381 39.324,29.406 39.543,29.423 39.762,29.432 39.99,29.432 40.209,29.423     40.437,29.406 40.665,29.373 40.892,29.331 41.128,29.28 41.356,29.204 41.592,29.111 41.837,29.01 42.073,28.875 42.318,28.732     41.98,30.806 41.845,30.874 41.71,30.941 41.575,30.992 41.449,31.042 41.322,31.085 41.187,31.127 41.053,31.161 40.909,31.186     40.757,31.211 40.589,31.228 40.412,31.245 40.218,31.262 39.999,31.27 39.771,31.27 39.509,31.279 39.231,31.279 38.818,31.27     38.396,31.228 37.974,31.169 37.553,31.068 37.14,30.941 36.743,30.781 36.364,30.57 36.01,30.326 35.681,30.039 35.394,29.693     35.149,29.305 34.947,28.858 34.804,28.361 34.711,27.796 34.686,27.172 34.728,26.48 34.761,26.21 34.812,25.898 34.879,25.569     34.972,25.215 35.099,24.853 35.251,24.49 35.445,24.119 35.681,23.765 35.95,23.427 36.279,23.107 36.65,22.82 37.072,22.567     37.561,22.356 38.109,22.205 38.717,22.103 39.4,22.07 39.729,22.078 40.074,22.112 40.42,22.171 40.766,22.255 41.103,22.382     41.432,22.533 41.736,22.736 42.014,22.972 42.267,23.259 42.478,23.596 42.646,23.984 42.764,24.431 42.832,24.937 42.84,25.51     42.781,26.151 42.655,26.86 42.613,27.374 36.465,27.374 36.853,25.713 40.547,25.713 40.563,25.502 40.555,25.299 40.538,25.114     40.504,24.945 40.445,24.785 40.386,24.642 40.302,24.515 40.218,24.397 40.116,24.296 40.007,24.212 39.88,24.136 39.754,24.068     39.619,24.018 39.484,23.984 39.341,23.959 39.189,23.942 39.029,23.95 38.877,23.975 38.733,24.009 38.59,24.06 38.447,24.127     38.32,24.203 38.194,24.296 38.084,24.397 37.974,24.515 37.873,24.642 37.78,24.777 37.705,24.92 37.629,25.072 37.57,25.24     37.519,25.409 37.485,25.586   "/>
		<polygon fill="#FFFFFF" points="57.261,22.753 57.151,22.694 57.042,22.643 56.924,22.584 56.797,22.525 56.671,22.474     56.527,22.424 56.384,22.373 56.232,22.323 56.072,22.28 55.912,22.247 55.735,22.213 55.558,22.188 55.364,22.171 55.17,22.154     54.967,22.154 54.756,22.154 54.546,22.154 54.326,22.171 54.099,22.196 53.863,22.238 53.626,22.306 53.39,22.398 53.154,22.517     52.918,22.668 52.69,22.854 52.471,23.073 52.26,23.343 52.058,23.655 51.872,24.026 51.695,24.448 51.535,24.92 51.4,25.46     51.349,25.763 51.316,26.058 51.299,26.354 51.307,26.64 51.333,26.927 51.392,27.197 51.467,27.45 51.56,27.703 51.687,27.931     51.839,28.15 52.016,28.344 52.218,28.521 52.446,28.673 52.707,28.799 52.994,28.909 53.314,28.985 53.424,29.01 53.55,29.035     53.702,29.052 53.871,29.069 54.056,29.086 54.25,29.086 54.461,29.086 54.672,29.069 54.891,29.044 55.111,29.002 55.321,28.943     55.532,28.875 55.743,28.782 55.937,28.673 56.114,28.538 56.283,28.386 55.903,30.638 55.853,30.68 55.802,30.73 55.735,30.789     55.659,30.84 55.566,30.908 55.448,30.967 55.313,31.026 55.161,31.076 54.967,31.135 54.748,31.177 54.495,31.211 54.2,31.245     53.871,31.262 53.491,31.27 53.061,31.262 52.589,31.236 52.201,31.194 51.813,31.11 51.425,30.983 51.037,30.815 50.666,30.612     50.312,30.359 49.975,30.064 49.663,29.727 49.385,29.347 49.148,28.926 48.946,28.453 48.794,27.939 48.693,27.374     48.659,26.775 48.676,26.118 48.769,25.418 48.836,25.072 48.912,24.734 48.997,24.406 49.081,24.094 49.174,23.798     49.283,23.503 49.393,23.225 49.511,22.964 49.638,22.702 49.764,22.458 49.907,22.221 50.059,22.002 50.211,21.791 50.38,21.589     50.548,21.403 50.725,21.226 50.919,21.058 51.113,20.897 51.316,20.754 51.527,20.619 51.754,20.493 51.982,20.383     52.218,20.282 52.463,20.189 52.724,20.105 52.985,20.037 53.255,19.978 53.542,19.928 53.829,19.885 54.132,19.852     54.436,19.835 54.756,19.826 55.026,19.835 55.288,19.852 55.541,19.877 55.794,19.911 56.03,19.944 56.258,19.995 56.477,20.037     56.679,20.088 56.873,20.138 57.042,20.189 57.202,20.24 57.337,20.29 57.455,20.332 57.556,20.366 57.632,20.4 57.683,20.417       "/>
		<path fill="#FFFFFF" d="M77.636,20.248l-0.59,3.314l-0.051-0.101l-0.067-0.101l-0.076-0.11l-0.084-0.11l-0.101-0.11l-0.11-0.11    l-0.127-0.11l-0.135-0.101l-0.152-0.093l-0.169-0.093l-0.169-0.076l-0.194-0.067l-0.202-0.059L75.19,22.28l-0.236-0.025    l-0.245-0.008l-0.346,0.017l-0.337,0.051l-0.337,0.076l-0.337,0.118l-0.32,0.143l-0.321,0.186l-0.312,0.211l-0.295,0.245    l-0.278,0.278l-0.261,0.304l-0.253,0.337l-0.219,0.379l-0.211,0.405l-0.177,0.43l-0.152,0.472l-0.126,0.497l-0.076,0.43    l-0.042,0.43l-0.008,0.438l0.025,0.43l0.067,0.43l0.093,0.413l0.135,0.396l0.169,0.38l0.202,0.354l0.236,0.312l0.27,0.287    l0.304,0.245l0.337,0.194l0.371,0.143l0.405,0.093l0.439,0.034h0.169l0.169-0.009l0.16-0.017l0.169-0.025l0.169-0.025l0.16-0.042    l0.16-0.042l0.16-0.059l0.16-0.076l0.152-0.076l0.152-0.093l0.152-0.11l0.152-0.118l0.143-0.135l0.143-0.152l0.135-0.169v0.084    l-0.169,0.936h2.336l1.906-11.031H77.636z M76.472,26.379l-0.025,0.245l-0.042,0.236l-0.042,0.228l-0.059,0.228l-0.067,0.219    l-0.084,0.211l-0.093,0.202l-0.11,0.194l-0.118,0.186l-0.127,0.169l-0.143,0.152l-0.16,0.143l-0.169,0.127l-0.177,0.101    l-0.194,0.093l-0.202,0.059l-0.219,0.051l-0.236,0.017l-0.337-0.067l-0.278-0.186l-0.219-0.278L73.2,28.361l-0.11-0.396    l-0.059-0.413l-0.017-0.405l0.042-0.371l0.05-0.245l0.068-0.245l0.067-0.228l0.084-0.228l0.093-0.219l0.11-0.202l0.118-0.194    l0.127-0.186l0.143-0.16l0.143-0.143l0.169-0.135l0.169-0.11l0.194-0.084l0.194-0.067l0.211-0.034l0.228-0.017l0.177,0.017    l0.16,0.042l0.152,0.068l0.143,0.101l0.126,0.118l0.11,0.135l0.101,0.16l0.084,0.169l0.067,0.194l0.059,0.202l0.034,0.211    l0.025,0.219l0.008,0.236V26.379z"/>
		<path fill="#FFFFFF" d="M23.267,24.009l-0.084-0.27l-0.126-0.253l-0.169-0.228l-0.186-0.202l-0.211-0.186l-0.236-0.16    l-0.253-0.143l-0.253-0.118l-0.261-0.101l-0.27-0.076l-0.261-0.059l-0.253-0.042l-0.236-0.017l-0.295-0.008l-0.295-0.008h-0.278    h-0.27h-0.261l-0.253,0.008l-0.244,0.008l-0.236,0.017l-0.228,0.017l-0.219,0.034l-0.219,0.034l-0.202,0.042l-0.202,0.042    l-0.202,0.059l-0.185,0.068l-0.186,0.076l-0.599,2.032l0.093-0.051l0.118-0.059l0.152-0.051l0.186-0.051l0.202-0.042l0.219-0.042    l0.245-0.042l0.253-0.034l0.261-0.034l0.27-0.025l0.27-0.025l0.278-0.017l0.27-0.008h0.261l0.253,0.008l0.236,0.008l0.219,0.017    l0.202,0.051l0.177,0.076l0.16,0.11l0.135,0.126l0.101,0.152l0.076,0.169l0.034,0.185l-0.017,0.16l-0.042,0.177l-0.051,0.152    l-0.017,0.059h-0.025l-0.084-0.008l-0.118-0.008l-0.152-0.008h-0.185l-0.185-0.008l-0.203-0.008h-0.194h-0.093l-0.118,0.008    l-0.127,0.008l-0.135,0.008l-0.135,0.017l-0.152,0.008l-0.143,0.017l-0.143,0.017L18.3,25.603l-0.126,0.017l-0.118,0.008    l-0.101,0.017l-0.093,0.008l-0.059,0.008l-0.042,0.008h-0.017l-0.295,0.051l-0.287,0.076l-0.278,0.093l-0.27,0.118l-0.253,0.135    l-0.244,0.16L15.88,26.48l-0.211,0.194l-0.203,0.211l-0.177,0.236l-0.152,0.245l-0.135,0.27l-0.11,0.287l-0.084,0.295    l-0.051,0.312l-0.025,0.329v0.186l0.017,0.185l0.025,0.194l0.034,0.194l0.051,0.186l0.068,0.185l0.084,0.186l0.101,0.177    l0.118,0.169l0.135,0.16l0.169,0.152l0.186,0.135l0.211,0.127l0.236,0.11l0.27,0.084l0.295,0.076l0.228,0.034l0.236,0.025    l0.245-0.008l0.245-0.017l0.253-0.034l0.245-0.051l0.245-0.059l0.245-0.076l0.228-0.084l0.219-0.101l0.211-0.101l0.203-0.118    l0.177-0.118l0.16-0.127l0.135-0.135l0.118-0.135l-0.034,0.126l-0.034,0.236l-0.042,0.312l-0.059,0.346h2.125l0.337-1.872    l0.852-4.453l0.051-0.337v-0.32L23.267,24.009z M20.341,27.425l-0.051,0.27l-0.059,0.278l-0.067,0.245l-0.025,0.093l-0.042,0.093    l-0.051,0.101l-0.059,0.101l-0.067,0.101l-0.084,0.093L19.734,28.9l-0.11,0.084l-0.127,0.093l-0.143,0.076l-0.16,0.076    l-0.169,0.059l-0.194,0.051l-0.219,0.034l-0.228,0.025l-0.253,0.008l-0.135-0.008l-0.135-0.025l-0.143-0.051l-0.127-0.084    l-0.11-0.127l-0.084-0.169l-0.042-0.228l0.008-0.287l0.025-0.135l0.051-0.135l0.059-0.118l0.084-0.11l0.093-0.101l0.101-0.101    l0.109-0.084l0.118-0.084l0.11-0.068l0.118-0.059l0.11-0.059l0.11-0.051l0.093-0.042l0.093-0.034l0.067-0.025l0.059-0.017    l0.093-0.025l0.101-0.025l0.118-0.025l0.126-0.017l0.135-0.017l0.135-0.017l0.143-0.017l0.135-0.008h0.127h0.126l0.11,0.008    l0.093,0.017l0.084,0.017l0.051,0.025l0.034,0.042l0.008,0.042L20.341,27.425z"/>
		<polygon fill="#FFFFFF" points="4.672,31.279 2.378,31.279 4.292,20.206 8.281,20.206 8.661,26.775 11.418,20.206 15.585,20.206     13.628,31.279 11.334,31.279 12.785,23.006 12.692,23.006 9.26,31.279 6.671,31.279 6.654,30.933 6.595,30.014 6.519,28.706     6.434,27.205 6.35,25.696 6.274,24.372 6.215,23.41 6.198,23.006 6.173,23.006 6.122,23.006 6.072,23.006 6.072,23.006   "/>
		<path fill="#FFFFFF" d="M65.138,24.009l-0.093-0.27l-0.127-0.253l-0.169-0.228l-0.194-0.202l-0.211-0.186l-0.236-0.16    l-0.253-0.143l-0.261-0.118l-0.261-0.101l-0.27-0.076l-0.261-0.059l-0.253-0.042l-0.236-0.017l-0.287-0.008l-0.287-0.008h-0.27    h-0.262h-0.261l-0.245,0.008l-0.245,0.008l-0.236,0.017l-0.228,0.017l-0.219,0.034l-0.211,0.034l-0.211,0.042l-0.202,0.042    l-0.194,0.059l-0.194,0.068l-0.186,0.076l-0.59,2.032l0.093-0.051l0.118-0.059l0.152-0.051l0.185-0.051l0.202-0.042l0.219-0.042    l0.245-0.042l0.253-0.034l0.261-0.034l0.27-0.025l0.27-0.025l0.278-0.017l0.27-0.008h0.261l0.253,0.008l0.236,0.008l0.202,0.017    l0.186,0.051l0.177,0.076l0.152,0.11l0.127,0.126l0.11,0.152l0.067,0.169l0.034,0.185l-0.017,0.16l-0.025,0.177l-0.025,0.152    l-0.017,0.059H62.49l-0.076-0.008l-0.135-0.008l-0.16-0.008h-0.186l-0.194-0.008l-0.202-0.008h-0.202h-0.093l-0.118,0.008    l-0.118,0.008l-0.135,0.008l-0.143,0.017l-0.143,0.008l-0.152,0.017l-0.143,0.017l-0.135,0.017l-0.126,0.017l-0.118,0.008    l-0.11,0.017l-0.084,0.008l-0.059,0.008l-0.042,0.008h-0.017l-0.287,0.051l-0.278,0.076l-0.278,0.093l-0.261,0.118l-0.261,0.135    l-0.245,0.16l-0.228,0.177l-0.219,0.194l-0.194,0.211l-0.177,0.236l-0.16,0.245l-0.127,0.27l-0.11,0.287l-0.076,0.295    l-0.051,0.312l-0.017,0.329v0.186l0.017,0.185l0.025,0.194l0.034,0.194l0.042,0.186l0.067,0.185l0.076,0.186l0.101,0.177    l0.118,0.169l0.135,0.16l0.16,0.152l0.185,0.135l0.219,0.127l0.236,0.11l0.27,0.084l0.304,0.076l0.228,0.034l0.228,0.025    l0.236-0.008l0.245-0.017l0.236-0.034l0.236-0.042l0.236-0.067l0.228-0.068l0.211-0.084L60.913,31l0.203-0.101l0.177-0.11    l0.169-0.118l0.152-0.118l0.127-0.127l0.11-0.126l-0.017,0.101v0.228l-0.008,0.304l-0.017,0.346h2.117l0.346-1.872l0.885-4.453    l0.042-0.337v-0.32L65.138,24.009z M62.211,27.416l-0.034,0.236l-0.042,0.245l-0.034,0.236l-0.025,0.093l-0.034,0.101    l-0.042,0.101l-0.059,0.101l-0.076,0.11l-0.093,0.101l-0.101,0.11l-0.118,0.093l-0.135,0.101l-0.152,0.084l-0.16,0.076    l-0.186,0.067l-0.194,0.059l-0.219,0.042l-0.236,0.025l-0.253,0.008l-0.143-0.008l-0.143-0.025l-0.143-0.051l-0.127-0.084    l-0.101-0.127l-0.067-0.169l-0.042-0.228l0.008-0.287l0.025-0.143l0.051-0.135l0.059-0.127l0.076-0.118l0.093-0.11l0.093-0.093    l0.11-0.093l0.11-0.076l0.11-0.076l0.118-0.059l0.101-0.051l0.11-0.051l0.093-0.034l0.084-0.025l0.067-0.025l0.059-0.008    l0.084-0.017l0.11-0.025l0.11-0.017l0.127-0.025l0.126-0.017l0.135-0.017l0.135-0.017l0.135-0.017l0.127-0.008h0.127l0.11,0.008    l0.093,0.008l0.084,0.025l0.059,0.025l0.034,0.042l0.017,0.051L62.211,27.416z"/>
		<polygon fill="#FFFFFF" points="64.902,31.279 67.28,31.279 67.28,31.279 68.132,26.48 68.165,26.295 68.216,26.109     68.266,25.924 68.334,25.738 68.418,25.552 68.519,25.375 68.629,25.207 68.764,25.046 68.916,24.903 69.084,24.768     69.278,24.642 69.498,24.541 69.742,24.456 70.012,24.389 70.307,24.338 70.636,24.321 70.754,24.321 70.822,24.321     70.847,24.321 70.847,24.321 71.226,22.154 70.99,22.171 70.763,22.196 70.552,22.238 70.349,22.297 70.164,22.365 69.987,22.449     69.818,22.542 69.658,22.643 69.506,22.761 69.363,22.879 69.228,23.014 69.093,23.149 68.966,23.292 68.84,23.453 68.713,23.604     68.595,23.773 68.848,22.247 66.479,22.247 64.902,31.279   "/>
		<polygon fill="#FFFFFF" points="42.571,31.279 44.949,31.279 44.991,31.279 45.8,26.48 45.834,26.295 45.876,26.118 45.918,25.94     45.978,25.772 46.045,25.603 46.129,25.443 46.231,25.291 46.349,25.148 46.483,25.021 46.635,24.895 46.821,24.793     47.023,24.701 47.259,24.625 47.521,24.557 47.808,24.515 48.136,24.49 48.162,24.49 48.195,24.498 48.238,24.507 48.28,24.507     48.322,24.515 48.356,24.524 48.381,24.532 48.389,24.532 48.398,24.498 48.423,24.397 48.457,24.245 48.499,24.06 48.558,23.841     48.617,23.604 48.693,23.368 48.769,23.132 48.836,22.972 48.921,22.812 49.005,22.651 49.089,22.508 49.165,22.382 49.224,22.28     49.266,22.221 49.283,22.196 49.275,22.196 49.241,22.188 49.199,22.179 49.14,22.171 49.081,22.171 49.013,22.162 48.954,22.154     48.895,22.154 48.634,22.171 48.398,22.196 48.179,22.238 47.976,22.289 47.782,22.356 47.605,22.441 47.445,22.525     47.293,22.626 47.15,22.736 47.015,22.862 46.888,22.989 46.762,23.132 46.635,23.276 46.517,23.436 46.391,23.604 46.264,23.773     46.568,22.247 44.148,22.247 42.571,31.279   "/>
	</g>
</g>
</svg>