<?xml version="1.0" encoding="UTF-8"?>
<!-- Generator: Adobe Illustrator 18.1.1, SVG Export Plug-In . SVG Version: 6.00 Build 0)  -->
<svg version="1.1" id="Слой_1" xmlns="http://www.w3.org/2000/svg" xmlns:xlink="http://www.w3.org/1999/xlink" x="0px" y="0px" viewBox="0 0 110.612 31.198" enable-background="new 0 0 110.612 31.198" xml:space="preserve">
<g>
	<g>
		<path fill="#2B963F" d="M61.585,3.295l-6.988,15.14h-0.709V0h-9.927v31.198h8.425c2.213,0,4.223-1.286,5.15-3.295l6.988-15.14    h0.709v18.435h9.927V0h-8.425C64.522,0,62.512,1.286,61.585,3.295z"/>
		<path fill="#2B963F" d="M24.343,4.1l-4.135,14.335h-0.709L15.364,4.1C14.663,1.672,12.441,0,9.914,0H0v31.198h9.927V12.763h0.709    l5.672,18.435h7.09l5.672-18.435h0.709v18.435h9.927V0h-9.914C27.266,0,25.044,1.672,24.343,4.1z"/>
		<path fill="#2B963F" d="M79.414,14.181v17.017h9.907v-9.927h10.655c4.629,0,8.556-2.962,10.018-7.09H79.414z"/>
	</g>
	<path fill="#009FD8" d="M99.976,0H77.996c1.334,7.26,7.687,12.763,15.333,12.763h17.07c0.14-0.687,0.214-1.399,0.214-2.127   C110.612,4.762,105.85,0,99.976,0z"/>
</g>
</svg>