<?xml version="1.0" encoding="UTF-8"?>
<!-- Generator: Adobe Illustrator 18.1.1, SVG Export Plug-In . SVG Version: 6.00 Build 0)  -->
<svg version="1.1" id="Слой_1" xmlns="http://www.w3.org/2000/svg" xmlns:xlink="http://www.w3.org/1999/xlink" x="0px" y="0px" viewBox="0 0 110.612 35.798" enable-background="new 0 0 110.612 35.798" xml:space="preserve">
<g>
	<linearGradient id="SVGID_1_" gradientUnits="userSpaceOnUse" x1="14.2741" y1="17.9527" x2="111.2551" y2="17.9527">
		<stop offset="0" style="stop-color:#233C60"/>
		<stop offset="1" style="stop-color:#1D518F"/>
	</linearGradient>
	<polygon fill-rule="evenodd" clip-rule="evenodd" fill="url(#SVGID_1_)" points="45.682,0.625 38.419,35.28 47.378,35.28    54.642,0.625  "/>
	<linearGradient id="SVGID_2_" gradientUnits="userSpaceOnUse" x1="14.2741" y1="17.8991" x2="111.2551" y2="17.8991">
		<stop offset="0" style="stop-color:#233C60"/>
		<stop offset="1" style="stop-color:#1D518F"/>
	</linearGradient>
	<path fill-rule="evenodd" clip-rule="evenodd" fill="url(#SVGID_2_)" d="M71.602,14.526c-3.133-1.587-5.051-2.655-5.051-4.275   c0.038-1.481,1.623-2.989,5.162-2.989c2.914-0.074,5.052,0.627,6.673,1.327l0.811,0.368l1.217-7.482   C78.644,0.771,75.841,0,72.377,0c-8.85,0-15.08,4.719-15.119,11.465c-0.072,4.977,4.463,7.742,7.854,9.402   c3.465,1.694,4.646,2.802,4.646,4.312c-0.036,2.322-2.803,3.392-5.384,3.392c-3.575-0.003-5.494-0.553-8.407-1.842l-1.179-0.558   l-1.253,7.779c2.1,0.961,5.972,1.809,9.991,1.847c9.403-0.003,15.523-4.646,15.596-11.836   C79.161,20.018,76.764,16.998,71.602,14.526z"/>
	<linearGradient id="SVGID_3_" gradientUnits="userSpaceOnUse" x1="14.2741" y1="17.9541" x2="111.2551" y2="17.9541">
		<stop offset="0" style="stop-color:#233C60"/>
		<stop offset="1" style="stop-color:#1D518F"/>
	</linearGradient>
	<path fill-rule="evenodd" clip-rule="evenodd" fill="url(#SVGID_3_)" d="M103.385,0.625h-6.932c-2.139,0-3.761,0.63-4.683,2.877   L78.461,35.28h9.402c0,0,1.547-4.276,1.879-5.199c1.033,0,10.177,0,11.504,0c0.258,1.217,1.068,5.202,1.068,5.202l8.298-0.003   L103.385,0.625z M92.323,23.002c0.737-1.989,3.576-9.693,3.576-9.693c-0.037,0.069,0.737-2.028,1.18-3.32l0.627,2.986   c0,0,1.696,8.297,2.064,10.029C98.37,23.002,94.092,23.004,92.323,23.002z"/>
	<linearGradient id="SVGID_4_" gradientUnits="userSpaceOnUse" x1="14.2741" y1="17.9339" x2="111.2551" y2="17.9339">
		<stop offset="0" style="stop-color:#233C60"/>
		<stop offset="1" style="stop-color:#1D518F"/>
	</linearGradient>
	<path fill-rule="evenodd" clip-rule="evenodd" fill="url(#SVGID_4_)" d="M32.041,0.625l-9.329,23.631l-0.959-4.79   c0-0.001-0.001-0.002-0.001-0.004L18.619,3.537c-0.516-2.213-2.102-2.837-4.056-2.912H0.147L0,1.324   C3.515,2.223,6.659,3.519,9.414,5.13l7.987,30.113h9.476L41.515,0.625H32.041z"/>
</g>
</svg>